<svg width="101" height="101" viewBox="0 0 101 101" fill="none" xmlns="http://www.w3.org/2000/svg">
<path d="M98.7311 23.0179C97.2628 21.6372 95.3446 20.9389 93.3254 21.0533L87.672 21.3728L94.3103 18.7356C96.1868 17.99 97.6294 16.55 98.3744 14.6801C99.1195 12.8101 99.0581 10.7764 98.204 8.95379L95.9688 4.18421C95.1148 2.36159 93.589 1.00843 91.6708 0.375252C89.7546 -0.259903 87.7176 -0.0843477 85.9382 0.868385L60.2869 14.5854C58.9572 13.0941 57.0212 12.1513 54.8653 12.1513C52.3329 12.1513 50.0997 13.4531 48.8037 15.4178C47.5078 13.4531 45.2785 12.1513 42.7481 12.1513C38.7513 12.1513 35.4995 15.3882 35.4995 19.3668V24.3198L30.5634 24.5979C27.8685 24.7498 25.7562 26.9748 25.7562 29.6614V32.1665C25.7562 34.8531 27.8685 37.0781 30.5634 37.23L35.4995 37.5082V50.6807C33.8806 50.7596 32.2874 50.8523 30.72 50.9608C29.9095 47.8896 27.0977 45.6172 23.7627 45.6172C19.9145 45.6172 16.7619 48.6411 16.5796 52.4284C12.8443 52.9629 9.28941 53.602 6.002 54.3338C3.92136 54.7974 2.11418 56.119 1.04017 57.9613C-0.0358164 59.8096 -0.291438 62.0386 0.34068 64.0762C4.90223 78.7735 13.952 89.4035 18.9416 94.4334C21.9318 97.4475 25.879 99.4082 30.0522 99.9526C37.0332 100.864 44.797 101 48.8037 101C52.8104 101 60.5762 100.864 67.5552 99.9526C71.7304 99.4082 75.6757 97.4475 78.6658 94.4334C83.6554 89.4055 92.7052 78.7735 97.2667 64.0762C97.8989 62.0386 97.6452 59.8096 96.5673 57.9613C95.4952 56.119 93.6861 54.7974 91.6054 54.3338C83.0708 52.4323 73.1888 51.2074 62.1079 50.6748V39.0112L93.3195 40.7727C93.4621 40.7806 93.6028 40.7845 93.7435 40.7845C95.6042 40.7845 97.3579 40.0902 98.7232 38.8081C100.192 37.4273 101 35.5593 101 33.5473V28.2826C101 26.2706 100.192 24.4027 98.7232 23.0219L98.7311 23.0179ZM87.0657 2.95138C88.2645 2.31031 89.6338 2.19393 90.9238 2.61999C92.2138 3.04606 93.2402 3.95737 93.8149 5.18428L96.0501 9.95386C96.6247 11.1808 96.6643 12.5497 96.165 13.8062C95.6637 15.0647 94.6927 16.0332 93.4304 16.5362L80.1976 21.793L62.1158 22.8128V19.3628C62.1158 18.3805 61.9177 17.4455 61.559 16.5914L87.0657 2.95138ZM49.9986 19.3628C49.9986 16.6901 52.1823 14.5144 54.8693 14.5144C57.5563 14.5144 59.7399 16.6881 59.7399 19.3628V22.9469L50.0006 23.4973V19.3628H49.9986ZM37.8794 19.3628C37.8794 16.6901 40.063 14.5144 42.75 14.5144C45.437 14.5144 47.6207 16.6881 47.6207 19.3628V23.6314L37.8813 24.1817V19.3628H37.8794ZM17.1582 62.9795C18.2976 60.4507 18.9495 56.7324 18.9495 52.7736C18.9495 50.1304 21.1094 47.9803 23.7647 47.9803C26.42 47.9803 28.5799 50.1304 28.5799 52.7736C28.5799 58.1901 27.6684 63.0761 25.9444 66.9028C25.1696 68.6248 23.4437 69.7354 21.5473 69.7354C20.8677 69.7354 20.2058 69.5934 19.5797 69.3133C18.4066 68.7886 17.5069 67.8417 17.0492 66.6444C16.5915 65.4471 16.6291 64.1452 17.1562 62.9775L17.1582 62.9795ZM2.61551 63.374C2.17164 61.9439 2.34404 60.4428 3.09901 59.1448C3.85002 57.8548 5.0667 56.9652 6.52315 56.6397C9.63024 55.9474 12.983 55.3379 16.5082 54.825C16.3339 57.6556 15.8008 60.2041 14.9864 62.0109C14.4415 63.2221 14.2473 64.5279 14.4078 65.812C10.7835 66.3821 7.35144 67.0527 4.17896 67.8161C3.61422 66.3821 3.08712 64.9027 2.61353 63.3759L2.61551 63.374ZM76.9795 92.7666C74.3579 95.4079 70.9041 97.1259 67.2501 97.6033C60.4038 98.4969 52.7569 98.631 48.8077 98.631C44.8584 98.631 37.2116 98.4969 30.3653 97.6033C26.7133 97.1259 23.2574 95.4098 20.6358 92.7666C16.5915 88.6894 9.79273 80.8131 5.09643 70.0293C8.19955 69.2955 11.5543 68.6485 15.0954 68.1001C15.8325 69.5973 17.0591 70.7828 18.6067 71.4732C19.54 71.8894 20.5308 72.1024 21.5473 72.1024C24.379 72.1024 26.955 70.4415 28.1142 67.8713C28.3084 67.4413 28.4907 66.9955 28.6651 66.5418C34.9724 66.0428 41.7434 65.7903 48.8077 65.7903C65.7084 65.7903 80.7762 67.2559 92.5189 70.0332C87.8206 80.8171 81.0239 88.6914 76.9795 92.7686V92.7666ZM91.0942 56.6397C92.5506 56.9632 93.7653 57.8548 94.5183 59.1448C95.2733 60.4428 95.4457 61.9439 95.0018 63.374C94.5282 64.9007 94.0011 66.3801 93.4364 67.8141C81.4618 64.9401 66.0631 63.4213 48.8077 63.4213C42.0525 63.4213 35.5609 63.6521 29.4795 64.1038C30.4069 60.8827 30.9082 57.2256 30.9518 53.314C36.5953 52.9274 42.5915 52.7302 48.8077 52.7302C65.219 52.7302 79.4466 54.0459 91.0922 56.6417L91.0942 56.6397ZM37.8794 50.5742V37.6403L47.6187 38.1907V50.3691C44.3016 50.3829 41.0479 50.4519 37.8794 50.5762V50.5742ZM49.9986 50.3651V38.3228L59.738 38.8731V50.5683C56.5833 50.446 53.3355 50.3789 49.9986 50.3651ZM98.632 33.5414C98.632 34.8946 98.0871 36.153 97.1003 37.0821C96.1115 38.0112 94.8195 38.4806 93.4621 38.4057L30.7022 34.863C29.2635 34.7821 28.138 33.5947 28.138 32.1626V29.6575C28.138 28.2234 29.2635 27.038 30.7022 26.9571L93.4621 23.4164C94.8195 23.3395 96.1115 23.8089 97.1003 24.74C98.0891 25.669 98.632 26.9275 98.632 28.2807V33.5453V33.5414ZM37.2671 76.6254C36.1732 76.6254 35.2855 77.5091 35.2855 78.598C35.2855 79.6868 36.1732 80.5705 37.2671 80.5705C38.3609 80.5705 39.2486 79.6868 39.2486 78.598C39.2486 77.5091 38.3609 76.6254 37.2671 76.6254ZM45.4489 80.752C44.9456 80.3298 44.1966 80.3949 43.7745 80.896C43.3524 81.397 43.4158 82.1426 43.9192 82.5627C45.3459 83.7581 47.0362 84.3893 48.8097 84.3893C50.5832 84.3893 52.2734 83.7581 53.7002 82.5627C54.2035 82.1426 54.2669 81.395 53.8448 80.896C53.4227 80.3969 52.6717 80.3318 52.1704 80.752C51.1776 81.5824 50.0164 82.0223 48.8097 82.0223C47.6029 82.0223 46.4417 81.5824 45.4489 80.752ZM60.3503 80.5705C61.4441 80.5705 62.3318 79.6868 62.3318 78.598C62.3318 77.5091 61.4441 76.6254 60.3503 76.6254C59.2564 76.6254 58.3687 77.5091 58.3687 78.598C58.3687 79.6868 59.2564 80.5705 60.3503 80.5705Z" fill="#999999"/>
</svg>
